<?xml version="1.0" encoding="utf-8"?>
<!-- Generator: Adobe Illustrator 25.3.1, SVG Export Plug-In . SVG Version: 6.00 Build 0)  -->
<svg version="1.1" id="Capa_1" xmlns="http://www.w3.org/2000/svg" xmlns:xlink="http://www.w3.org/1999/xlink" x="0px" y="0px"
	 viewBox="0 0 94.2 94.2" style="enable-background:new 0 0 94.2 94.2;" xml:space="preserve">
<style type="text/css">
	.st0{fill:none;stroke:#000000;stroke-width:2.035;stroke-miterlimit:10;}
	.st1{fill:#33AEF2;}
	.st2{fill:#FFFFFF;}
	.st3{fill:none;stroke:#33AEF2;stroke-width:2;stroke-miterlimit:10;}
	.st4{fill:#E9F7FF;}
	.st5{fill:none;stroke:#33AEF2;stroke-width:6;stroke-miterlimit:10;}
	.st6{fill:#F8C34F;}
	.st7{fill:#EF8484;}
	.st8{fill:#FF8585;}
	.st9{fill:#285E9E;}
	.st10{fill:#303030;}
	.st11{fill:none;stroke:#FFFFFF;stroke-miterlimit:10;}
	.st12{fill:#FFFFFF;stroke:#285E9E;stroke-miterlimit:10;}
	.st13{fill:#F9B712;}
	.st14{fill:#FFFFFF;stroke:#FFFFFF;stroke-miterlimit:10;}
	.st15{fill:none;stroke:#285E9E;stroke-width:2;stroke-miterlimit:10;}
	.st16{fill:none;stroke:#3346B0;stroke-width:0.6937;stroke-miterlimit:10;}
	.st17{fill:#F9F9F9;stroke:#3346B0;stroke-width:0.6937;stroke-miterlimit:10;}
	.st18{fill:none;stroke:#3346B0;stroke-width:4;stroke-miterlimit:10;}
	.st19{fill:#FFC543;}
	.st20{fill:#79D8B4;}
	.st21{fill:none;stroke:#3346B0;stroke-width:4.0364;stroke-linecap:round;stroke-miterlimit:10;}
	.st22{fill:#8EDFC2;}
	.st23{opacity:0.7;}
	.st24{fill:#FF3939;}
	.st25{fill:#3346B0;}
</style>
<g>
	<g>
		<path class="st2" d="M44.4,49c1.1-2.7,2.1-4.8,2.9-6.3c0.6-1.1,1.1-2.1,1.7-2.9c0.5-0.8,1.1-1.5,1.9-2.3c0.7-0.7,1.6-1.3,2.5-1.7
			c1-0.4,2-0.6,3.2-0.6H66v7.1c0,0.3,0.1,0.6,0.3,0.8c0.2,0.2,0.5,0.3,0.8,0.3c0.3,0,0.6-0.1,0.8-0.3l11.8-11.8
			c0.2-0.2,0.3-0.5,0.3-0.8c0-0.3-0.1-0.6-0.3-0.8L68,18c-0.3-0.2-0.6-0.4-0.9-0.4c-0.3,0-0.6,0.1-0.8,0.3c-0.2,0.2-0.3,0.5-0.3,0.8
			v7.1h-9.4c-1.7,0-3.2,0.2-4.7,0.6s-2.8,0.9-3.9,1.5c-1.1,0.6-2.2,1.5-3.3,2.5c-1.1,1.1-2,2.1-2.7,3.1c-0.7,1-1.5,2.2-2.4,3.7
			c-0.8,1.5-1.5,2.8-2,3.9c-0.5,1.1-1.1,2.5-1.8,4.1c-1.1,2.7-2.1,4.8-2.9,6.3c-0.6,1.1-1.1,2.1-1.7,2.9c-0.5,0.8-1.1,1.5-1.9,2.3
			c-0.7,0.7-1.6,1.3-2.5,1.7c-1,0.4-2,0.6-3.2,0.6h-8.2c-0.3,0-0.6,0.1-0.8,0.3c-0.2,0.2-0.3,0.5-0.3,0.8v7.1c0,0.3,0.1,0.6,0.3,0.8
			c0.2,0.2,0.5,0.3,0.8,0.3h8.2c1.7,0,3.2-0.2,4.7-0.6c1.5-0.4,2.8-0.9,3.9-1.5c1.1-0.6,2.2-1.5,3.3-2.5c1.1-1.1,2-2.1,2.7-3.1
			c0.7-1,1.5-2.2,2.4-3.7c0.8-1.5,1.5-2.8,2-3.9C43.1,51.9,43.7,50.6,44.4,49z"/>
		<path class="st2" d="M15.3,35.3h8.2c1.1,0,2.1,0.2,3,0.5s1.7,0.8,2.3,1.3c0.6,0.5,1.3,1.2,1.9,2.1c0.6,0.9,1.1,1.7,1.5,2.3
			c0.4,0.7,0.8,1.6,1.4,2.7c1.9-4.4,3.6-7.8,5-10c-3.9-5.5-9-8.3-15.1-8.3h-8.2c-0.3,0-0.6,0.1-0.8,0.3c-0.2,0.2-0.3,0.5-0.3,0.8
			v7.1c0,0.3,0.1,0.6,0.3,0.8C14.7,35.2,15,35.3,15.3,35.3z"/>
		<path class="st2" d="M68,51c-0.3-0.2-0.6-0.4-0.9-0.4c-0.3,0-0.6,0.1-0.8,0.3c-0.2,0.2-0.3,0.5-0.3,0.8v7.1h-9.4
			c-1.1,0-2.1-0.2-3-0.5c-0.9-0.4-1.7-0.8-2.3-1.3c-0.6-0.5-1.3-1.2-1.9-2.1c-0.6-0.9-1.1-1.7-1.5-2.3C47.5,52,47,51.1,46.5,50
			c-1.9,4.4-3.6,7.8-5,10c0.7,1,1.3,1.8,2.1,2.6c0.7,0.7,1.4,1.4,2,2c0.6,0.6,1.4,1.1,2.2,1.5c0.8,0.4,1.5,0.8,2.1,1
			c0.6,0.3,1.4,0.5,2.3,0.7c0.9,0.2,1.7,0.3,2.4,0.4c0.6,0.1,1.5,0.1,2.6,0.2c1.1,0,2,0,2.7,0c0.7,0,1.7,0,3,0c1.3,0,2.3,0,3.1,0
			v7.1c0,0.3,0.1,0.6,0.3,0.8c0.2,0.2,0.5,0.3,0.8,0.3c0.3,0,0.6-0.1,0.8-0.3l11.8-11.8c0.2-0.2,0.3-0.5,0.3-0.8
			c0-0.3-0.1-0.6-0.3-0.8L68,51z"/>
	</g>
</g>
</svg>
