<?xml version="1.0" encoding="utf-8"?>
<!-- Generator: Adobe Illustrator 25.3.1, SVG Export Plug-In . SVG Version: 6.00 Build 0)  -->
<svg version="1.1" id="Capa_1" xmlns="http://www.w3.org/2000/svg" xmlns:xlink="http://www.w3.org/1999/xlink" x="0px" y="0px"
	 viewBox="0 0 94.2 94.2" style="enable-background:new 0 0 94.2 94.2;" xml:space="preserve">
<style type="text/css">
	.st0{fill:none;stroke:#000000;stroke-width:2.035;stroke-miterlimit:10;}
	.st1{fill:#33AEF2;}
	.st2{fill:#FFFFFF;}
	.st3{fill:none;stroke:#33AEF2;stroke-width:2;stroke-miterlimit:10;}
	.st4{fill:#E9F7FF;}
	.st5{fill:none;stroke:#33AEF2;stroke-width:6;stroke-miterlimit:10;}
	.st6{fill:#F8C34F;}
	.st7{fill:#EF8484;}
	.st8{fill:#FF8585;}
	.st9{fill:#285E9E;}
	.st10{fill:#303030;}
	.st11{fill:none;stroke:#FFFFFF;stroke-miterlimit:10;}
	.st12{fill:#FFFFFF;stroke:#285E9E;stroke-miterlimit:10;}
	.st13{fill:#F9B712;}
	.st14{fill:#FFFFFF;stroke:#FFFFFF;stroke-miterlimit:10;}
	.st15{fill:none;stroke:#285E9E;stroke-width:2;stroke-miterlimit:10;}
	.st16{fill:none;stroke:#3346B0;stroke-width:0.6937;stroke-miterlimit:10;}
	.st17{fill:#F9F9F9;stroke:#3346B0;stroke-width:0.6937;stroke-miterlimit:10;}
	.st18{fill:none;stroke:#3346B0;stroke-width:4;stroke-miterlimit:10;}
	.st19{fill:#FFC543;}
	.st20{fill:#79D8B4;}
	.st21{fill:none;stroke:#3346B0;stroke-width:4.0364;stroke-linecap:round;stroke-miterlimit:10;}
	.st22{fill:#8EDFC2;}
	.st23{opacity:0.7;}
	.st24{fill:#FF3939;}
	.st25{fill:#3346B0;}
</style>
<g>
	<g>
		<g>
			<path class="st2" d="M39.8,20.3H25.1c-2.7,0-4.9,2.2-4.9,4.9v14.7c0,2.7,2.2,4.9,4.9,4.9h14.7c2.7,0,4.9-2.2,4.9-4.9V25.1
				C44.7,22.4,42.5,20.3,39.8,20.3z"/>
			<path class="st2" d="M69.1,20.3H54.4c-2.7,0-4.9,2.2-4.9,4.9v14.7c0,2.7,2.2,4.9,4.9,4.9h14.7c2.7,0,4.9-2.2,4.9-4.9V25.1
				C74,22.4,71.8,20.3,69.1,20.3z"/>
			<path class="st2" d="M39.8,49.6H25.1c-2.7,0-4.9,2.2-4.9,4.9v14.7c0,2.7,2.2,4.9,4.9,4.9h14.7c2.7,0,4.9-2.2,4.9-4.9V54.4
				C44.7,51.8,42.5,49.6,39.8,49.6z"/>
			<path class="st2" d="M70.5,58.3h-5.2v-5.2c0-1-0.8-1.7-1.7-1.7H60c-1,0-1.7,0.8-1.7,1.7v5.2h-5.2c-1,0-1.7,0.8-1.7,1.7v3.5
				c0,1,0.8,1.7,1.7,1.7h5.2v5.2c0,1,0.8,1.7,1.7,1.7h3.5c1,0,1.7-0.8,1.7-1.7v-5.2h5.2c1,0,1.7-0.8,1.7-1.7V60
				C72.2,59.1,71.4,58.3,70.5,58.3z"/>
		</g>
	</g>
</g>
</svg>
