<?xml version="1.0" encoding="utf-8"?>
<!-- Generator: Adobe Illustrator 25.3.1, SVG Export Plug-In . SVG Version: 6.00 Build 0)  -->
<svg version="1.1" id="Capa_1" xmlns="http://www.w3.org/2000/svg" xmlns:xlink="http://www.w3.org/1999/xlink" x="0px" y="0px"
	 viewBox="0 0 230 230" style="enable-background:new 0 0 230 230;" xml:space="preserve">
<style type="text/css">
	.st0{fill:none;stroke:#000000;stroke-width:2.035;stroke-miterlimit:10;}
	.st1{fill:#33AEF2;}
	.st2{fill:#FFFFFF;}
	.st3{fill:none;stroke:#33AEF2;stroke-width:2;stroke-miterlimit:10;}
	.st4{fill:#E9F7FF;}
	.st5{fill:none;stroke:#33AEF2;stroke-width:6;stroke-miterlimit:10;}
	.st6{fill:#F8C34F;}
	.st7{fill:#EF8484;}
	.st8{fill:#FF8585;}
	.st9{fill:#285E9E;}
	.st10{fill:#303030;}
	.st11{fill:none;stroke:#FFFFFF;stroke-miterlimit:10;}
	.st12{fill:#FFFFFF;stroke:#285E9E;stroke-miterlimit:10;}
	.st13{fill:#F9B712;}
	.st14{fill:#FFFFFF;stroke:#FFFFFF;stroke-miterlimit:10;}
	.st15{fill:none;stroke:#285E9E;stroke-width:2;stroke-miterlimit:10;}
	.st16{fill:none;stroke:#3346B0;stroke-width:0.6937;stroke-miterlimit:10;}
	.st17{fill:#F9F9F9;stroke:#3346B0;stroke-width:0.6937;stroke-miterlimit:10;}
	.st18{fill:none;stroke:#3346B0;stroke-width:4;stroke-miterlimit:10;}
	.st19{fill:#FFC543;}
	.st20{fill:#79D8B4;}
	.st21{fill:none;stroke:#3346B0;stroke-width:4.0364;stroke-linecap:round;stroke-miterlimit:10;}
	.st22{fill:#8EDFC2;}
	.st23{opacity:0.7;}
	.st24{fill:#FF3939;}
	.st25{fill:#3346B0;}
</style>
<g>
	<path class="st4" d="M115.3,226.4L115.3,226.4c-61.5,0-111.7-50.3-111.7-111.7v0C3.6,53.2,53.9,2.9,115.3,2.9h0
		c61.5,0,111.7,50.3,111.7,111.7v0C227.1,176.1,176.8,226.4,115.3,226.4z"/>
	<path class="st2" d="M173.9,96.8l-10.3-1.3c-0.8-2.6-1.9-5.1-3.1-7.5l6.4-8.2c2.6-3.3,2.3-8-0.7-10.8l-8.6-8.6
		c-2.9-3-7.6-3.3-10.9-0.7l-8.2,6.4c-2.4-1.2-4.9-2.3-7.5-3.1l-1.3-10.3c-0.5-4.1-4-7.2-8.1-7.2h-12.3c-4.1,0-7.6,3.1-8.1,7.2
		l-1.3,10.3c-2.6,0.8-5.1,1.9-7.5,3.1L84,59.6c-3.3-2.6-8-2.3-10.8,0.7l-8.6,8.6c-3,2.9-3.3,7.6-0.7,10.9l6.4,8.2
		c-1.2,2.4-2.3,4.9-3.1,7.5l-10.3,1.3c-4.1,0.5-7.2,4-7.2,8.1v12.3c0,4.1,3.1,7.6,7.2,8.1l10.3,1.3c0.8,2.6,1.9,5.1,3.1,7.5
		l-6.4,8.2c-2.6,3.3-2.3,8,0.7,10.8l8.6,8.6c2.9,3,7.6,3.3,10.9,0.7l8.2-6.4c2.4,1.2,4.9,2.3,7.5,3.1l1.3,10.3
		c0.5,4.1,4,7.2,8.1,7.2h12.3c4.1,0,7.6-3.1,8.1-7.2l1.3-10.3c2.6-0.8,5.1-1.9,7.5-3.1l8.2,6.4c3.3,2.6,8,2.3,10.8-0.7l8.6-8.6
		c3-2.9,3.3-7.6,0.7-10.9l-6.4-8.2c1.2-2.4,2.3-4.9,3.1-7.5l10.3-1.3c4.1-0.5,7.2-4,7.2-8.1V105C181.1,100.8,178,97.3,173.9,96.8
		L173.9,96.8z M115.3,138.5c-15.1,0-27.4-12.3-27.4-27.4s12.3-27.4,27.4-27.4s27.4,12.3,27.4,27.4S130.4,138.5,115.3,138.5
		L115.3,138.5z"/>
	<path class="st5" d="M173.9,96.8l-10.3-1.3c-0.8-2.6-1.9-5.1-3.1-7.5l6.4-8.2c2.6-3.3,2.3-8-0.7-10.8l-8.6-8.6
		c-2.9-3-7.6-3.3-10.9-0.7l-8.2,6.4c-2.4-1.2-4.9-2.3-7.5-3.1l-1.3-10.3c-0.5-4.1-4-7.2-8.1-7.2h-12.3c-4.1,0-7.6,3.1-8.1,7.2
		l-1.3,10.3c-2.6,0.8-5.1,1.9-7.5,3.1L84,59.6c-3.3-2.6-8-2.3-10.8,0.7l-8.6,8.6c-3,2.9-3.3,7.6-0.7,10.9l6.4,8.2
		c-1.2,2.4-2.3,4.9-3.1,7.5l-10.3,1.3c-4.1,0.5-7.2,4-7.2,8.1v12.3c0,4.1,3.1,7.6,7.2,8.1l10.3,1.3c0.8,2.6,1.9,5.1,3.1,7.5
		l-6.4,8.2c-2.6,3.3-2.3,8,0.7,10.8l8.6,8.6c2.9,3,7.6,3.3,10.9,0.7l8.2-6.4c2.4,1.2,4.9,2.3,7.5,3.1l1.3,10.3
		c0.5,4.1,4,7.2,8.1,7.2h12.3c4.1,0,7.6-3.1,8.1-7.2l1.3-10.3c2.6-0.8,5.1-1.9,7.5-3.1l8.2,6.4c3.3,2.6,8,2.3,10.8-0.7l8.6-8.6
		c3-2.9,3.3-7.6,0.7-10.9l-6.4-8.2c1.2-2.4,2.3-4.9,3.1-7.5l10.3-1.3c4.1-0.5,7.2-4,7.2-8.1V105C181.1,100.8,178,97.3,173.9,96.8
		L173.9,96.8z M115.3,138.5c-15.1,0-27.4-12.3-27.4-27.4s12.3-27.4,27.4-27.4s27.4,12.3,27.4,27.4S130.4,138.5,115.3,138.5
		L115.3,138.5z"/>
</g>
</svg>
