<?xml version="1.0" encoding="utf-8"?>
<!-- Generator: Adobe Illustrator 25.3.1, SVG Export Plug-In . SVG Version: 6.00 Build 0)  -->
<svg version="1.1" id="Capa_1" xmlns="http://www.w3.org/2000/svg" xmlns:xlink="http://www.w3.org/1999/xlink" x="0px" y="0px"
	 viewBox="0 0 230 230" style="enable-background:new 0 0 230 230;" xml:space="preserve">
<style type="text/css">
	.st0{fill:none;stroke:#000000;stroke-width:2.035;stroke-miterlimit:10;}
	.st1{fill:#33AEF2;}
	.st2{fill:#FFFFFF;}
	.st3{fill:none;stroke:#33AEF2;stroke-width:2;stroke-miterlimit:10;}
	.st4{fill:#E9F7FF;}
	.st5{fill:none;stroke:#33AEF2;stroke-width:6;stroke-miterlimit:10;}
	.st6{fill:#F8C34F;}
	.st7{fill:#EF8484;}
	.st8{fill:#FF8585;}
	.st9{fill:#285E9E;}
	.st10{fill:#303030;}
	.st11{fill:none;stroke:#FFFFFF;stroke-miterlimit:10;}
	.st12{fill:#FFFFFF;stroke:#285E9E;stroke-miterlimit:10;}
	.st13{fill:#F9B712;}
	.st14{fill:#FFFFFF;stroke:#FFFFFF;stroke-miterlimit:10;}
	.st15{fill:none;stroke:#285E9E;stroke-width:2;stroke-miterlimit:10;}
	.st16{fill:none;stroke:#3346B0;stroke-width:0.6937;stroke-miterlimit:10;}
	.st17{fill:#F9F9F9;stroke:#3346B0;stroke-width:0.6937;stroke-miterlimit:10;}
	.st18{fill:none;stroke:#3346B0;stroke-width:4;stroke-miterlimit:10;}
	.st19{fill:#FFC543;}
	.st20{fill:#79D8B4;}
	.st21{fill:none;stroke:#3346B0;stroke-width:4.0364;stroke-linecap:round;stroke-miterlimit:10;}
	.st22{fill:#8EDFC2;}
	.st23{opacity:0.7;}
	.st24{fill:#FF3939;}
	.st25{fill:#3346B0;}
</style>
<path class="st4" d="M114.6,226.4L114.6,226.4c-61.5,0-111.7-50.3-111.7-111.7v0C2.8,53.2,53.1,2.9,114.6,2.9h0
	c61.5,0,111.7,50.3,111.7,111.7v0C226.3,176.1,176,226.4,114.6,226.4z"/>
<path class="st2" d="M169.9,167.2c-6.3-3.6-10.2-10.5-12.6-16.6c8.1-9.7,13.1-22.2,13.1-35.8v0c0-30.8-25.2-56-56-56l0,0
	c-30.8,0-56,25.2-56,56v0c0,30.8,25.2,56,56,56l0,0c10.6,0,20.5-3,29-8.1c9,7.6,19.2,8.5,25.9,8C171,170.5,171.5,168.1,169.9,167.2z
	"/>
<path class="st5" d="M169.9,167.2c-6.3-3.6-10.2-10.5-12.6-16.6c8.1-9.7,13.1-22.2,13.1-35.8v0c0-30.8-25.2-56-56-56l0,0
	c-30.8,0-56,25.2-56,56v0c0,30.8,25.2,56,56,56l0,0c10.6,0,20.5-3,29-8.1c9,7.6,19.2,8.5,25.9,8C171,170.5,171.5,168.1,169.9,167.2z
	"/>
<g>
	<circle class="st1" cx="91.8" cy="114.4" r="5.9"/>
	<circle class="st1" cx="115.3" cy="114.4" r="5.9"/>
	<circle class="st1" cx="138.7" cy="114.4" r="5.9"/>
</g>
</svg>
