<?xml version="1.0" encoding="utf-8"?>
<!-- Generator: Adobe Illustrator 25.3.1, SVG Export Plug-In . SVG Version: 6.00 Build 0)  -->
<svg version="1.1" id="Capa_1" xmlns="http://www.w3.org/2000/svg" xmlns:xlink="http://www.w3.org/1999/xlink" x="0px" y="0px"
	 viewBox="0 0 94.2 94.2" style="enable-background:new 0 0 94.2 94.2;" xml:space="preserve">
<style type="text/css">
	.st0{fill:none;stroke:#000000;stroke-width:2.035;stroke-miterlimit:10;}
	.st1{fill:#33AEF2;}
	.st2{fill:#FFFFFF;}
	.st3{fill:none;stroke:#33AEF2;stroke-width:2;stroke-miterlimit:10;}
	.st4{fill:#E9F7FF;}
	.st5{fill:none;stroke:#33AEF2;stroke-width:6;stroke-miterlimit:10;}
	.st6{fill:#F8C34F;}
	.st7{fill:#EF8484;}
	.st8{fill:#FF8585;}
	.st9{fill:#285E9E;}
	.st10{fill:#303030;}
	.st11{fill:none;stroke:#FFFFFF;stroke-miterlimit:10;}
	.st12{fill:#FFFFFF;stroke:#285E9E;stroke-miterlimit:10;}
	.st13{fill:#F9B712;}
	.st14{fill:#FFFFFF;stroke:#FFFFFF;stroke-miterlimit:10;}
	.st15{fill:none;stroke:#285E9E;stroke-width:2;stroke-miterlimit:10;}
	.st16{fill:none;stroke:#3346B0;stroke-width:0.6937;stroke-miterlimit:10;}
	.st17{fill:#F9F9F9;stroke:#3346B0;stroke-width:0.6937;stroke-miterlimit:10;}
	.st18{fill:none;stroke:#3346B0;stroke-width:4;stroke-miterlimit:10;}
	.st19{fill:#FFC543;}
	.st20{fill:#79D8B4;}
	.st21{fill:none;stroke:#3346B0;stroke-width:4.0364;stroke-linecap:round;stroke-miterlimit:10;}
	.st22{fill:#8EDFC2;}
	.st23{opacity:0.7;}
	.st24{fill:#FF3939;}
	.st25{fill:#3346B0;}
</style>
<path class="st2" d="M75.8,74.3c-3.3-1.9-5.3-5.4-6.5-8.6c4.2-5,6.8-11.5,6.8-18.6v0C76,31.1,63,18.1,47,18.1S17.9,31.1,17.9,47.1v0
	c0,16,13.1,29.1,29.1,29.1c5.5,0,10.6-1.5,15-4.2c4.7,3.9,10,4.4,13.4,4.2C76.4,76.1,76.6,74.8,75.8,74.3z M35.3,50.1
	c-1.7,0-3.1-1.4-3.1-3.1c0-1.7,1.4-3.1,3.1-3.1c1.7,0,3.1,1.4,3.1,3.1C38.4,48.7,37,50.1,35.3,50.1z M47.5,50.1
	c-1.7,0-3.1-1.4-3.1-3.1c0-1.7,1.4-3.1,3.1-3.1c1.7,0,3.1,1.4,3.1,3.1C50.5,48.7,49.2,50.1,47.5,50.1z M59.6,50.1
	c-1.7,0-3.1-1.4-3.1-3.1c0-1.7,1.4-3.1,3.1-3.1c1.7,0,3.1,1.4,3.1,3.1C62.7,48.7,61.3,50.1,59.6,50.1z"/>
</svg>
