<?xml version="1.0" encoding="utf-8"?>
<!-- Generator: Adobe Illustrator 25.3.1, SVG Export Plug-In . SVG Version: 6.00 Build 0)  -->
<svg version="1.1" id="Capa_1" xmlns="http://www.w3.org/2000/svg" xmlns:xlink="http://www.w3.org/1999/xlink" x="0px" y="0px"
	 viewBox="0 0 94.2 94.2" style="enable-background:new 0 0 94.2 94.2;" xml:space="preserve">
<style type="text/css">
	.st0{fill:none;stroke:#000000;stroke-width:2.035;stroke-miterlimit:10;}
	.st1{fill:#33AEF2;}
	.st2{fill:#FFFFFF;}
	.st3{fill:none;stroke:#33AEF2;stroke-width:2;stroke-miterlimit:10;}
	.st4{fill:#E9F7FF;}
	.st5{fill:none;stroke:#33AEF2;stroke-width:6;stroke-miterlimit:10;}
	.st6{fill:#F8C34F;}
	.st7{fill:#EF8484;}
	.st8{fill:#FF8585;}
	.st9{fill:#285E9E;}
	.st10{fill:#303030;}
	.st11{fill:none;stroke:#FFFFFF;stroke-miterlimit:10;}
	.st12{fill:#FFFFFF;stroke:#285E9E;stroke-miterlimit:10;}
	.st13{fill:#F9B712;}
	.st14{fill:#FFFFFF;stroke:#FFFFFF;stroke-miterlimit:10;}
	.st15{fill:none;stroke:#285E9E;stroke-width:2;stroke-miterlimit:10;}
	.st16{fill:none;stroke:#3346B0;stroke-width:0.6937;stroke-miterlimit:10;}
	.st17{fill:#F9F9F9;stroke:#3346B0;stroke-width:0.6937;stroke-miterlimit:10;}
	.st18{fill:none;stroke:#3346B0;stroke-width:4;stroke-miterlimit:10;}
	.st19{fill:#FFC543;}
	.st20{fill:#79D8B4;}
	.st21{fill:none;stroke:#3346B0;stroke-width:4.0364;stroke-linecap:round;stroke-miterlimit:10;}
	.st22{fill:#8EDFC2;}
	.st23{opacity:0.7;}
	.st24{fill:#FF3939;}
	.st25{fill:#3346B0;}
</style>
<g>
	<path class="st2" d="M51,85.2c2.5,0.6,3.8,0.8,5.4,0.3L75,79.3c2.3-0.8,3.9-3,3.9-5.4V18.1c0-1.6-0.6-3.1-1.8-4.1
		c-1.2-1.1-2.8-1.6-4.4-1.5l0,0l0,0c-0.1,0-0.2,0-0.2,0l-39.3,0c-1.6,0-2.8,1.3-2.8,2.8v8.9c0,1.3,0.9,2.5,2.1,2.7
		c0.8,0.1,1.5-0.1,2.1-0.6c0.6-0.5,0.9-1.2,0.9-2v-6.7h21.1l-3.9,1.3c-2.3,0.8-3.9,3-3.9,5.4v47H35.4v-9.6c0-1.3-0.9-2.5-2.1-2.7
		c-0.2,0-0.3,0-0.5,0c-0.6,0-1.2,0.2-1.7,0.6c-0.6,0.5-0.9,1.2-0.9,2v12.2c0,1.6,1.3,2.8,2.8,2.8h15.8v5.9
		C48.8,83.8,49.7,84.9,51,85.2z"/>
	<path class="st2" d="M22.3,54.7c0.7,0.3,1.6,0.1,2.2-0.4l9.9-9.9c0.8-0.8,0.8-2,0-2.8l-9.9-9.9c-0.6-0.6-1.4-0.7-2.2-0.4
		c-0.7,0.3-1.2,1-1.2,1.8v6.4H10.7c-1.1,0-3.3,1-3.3,3.5c0,2.5,2.1,3.5,3.3,3.5h10.4v6.4C21.1,53.6,21.6,54.4,22.3,54.7z"/>
</g>
</svg>
