<?xml version="1.0" encoding="utf-8"?>
<!-- Generator: Adobe Illustrator 25.3.1, SVG Export Plug-In . SVG Version: 6.00 Build 0)  -->
<svg version="1.1" id="Capa_1" xmlns="http://www.w3.org/2000/svg" xmlns:xlink="http://www.w3.org/1999/xlink" x="0px" y="0px"
	 viewBox="0 0 120 120" style="enable-background:new 0 0 120 120;" xml:space="preserve">
<style type="text/css">
	.st0{fill:none;stroke:#000000;stroke-width:2.035;stroke-miterlimit:10;}
	.st1{fill:#33AEF2;}
	.st2{fill:#FFFFFF;}
	.st3{fill:none;stroke:#33AEF2;stroke-width:2;stroke-miterlimit:10;}
	.st4{fill:#E9F7FF;}
	.st5{fill:none;stroke:#33AEF2;stroke-width:6;stroke-miterlimit:10;}
	.st6{fill:#F8C34F;}
	.st7{fill:#EF8484;}
	.st8{fill:#FF8585;}
	.st9{fill:#285E9E;}
	.st10{fill:#303030;}
	.st11{fill:none;stroke:#FFFFFF;stroke-miterlimit:10;}
	.st12{fill:#FFFFFF;stroke:#285E9E;stroke-miterlimit:10;}
	.st13{fill:#F9B712;}
	.st14{fill:#FFFFFF;stroke:#FFFFFF;stroke-miterlimit:10;}
	.st15{fill:none;stroke:#285E9E;stroke-width:2;stroke-miterlimit:10;}
	.st16{fill:none;stroke:#3346B0;stroke-width:0.6937;stroke-miterlimit:10;}
	.st17{fill:#F9F9F9;stroke:#3346B0;stroke-width:0.6937;stroke-miterlimit:10;}
	.st18{fill:none;stroke:#3346B0;stroke-width:4;stroke-miterlimit:10;}
	.st19{fill:#FFC543;}
	.st20{fill:#79D8B4;}
	.st21{fill:none;stroke:#3346B0;stroke-width:4.0364;stroke-linecap:round;stroke-miterlimit:10;}
	.st22{fill:#8EDFC2;}
	.st23{opacity:0.7;}
	.st24{fill:#FF3939;}
	.st25{fill:#3346B0;}
</style>
<circle class="st24" cx="60" cy="60" r="57.2"/>
<g>
	<path class="st2" d="M57,70c-0.8-0.8-1.3-1.9-1.6-3.4l-4.4-26.2C51,40.1,51,39.7,51,39.1c0-2.5,0.9-4.5,2.6-5.9
		c1.7-1.4,3.9-2.1,6.4-2.1c2.6,0,4.8,0.7,6.5,2.2c1.7,1.5,2.5,3.5,2.5,6c0,0.6,0,1-0.1,1.3l-4.5,26.1c-0.2,1.5-0.7,2.6-1.5,3.4
		c-0.8,0.8-1.8,1.2-3,1.2C58.8,71.2,57.8,70.8,57,70z M54.1,89c-1.5-1.6-2.3-3.5-2.3-5.8c0-2.3,0.8-4.2,2.3-5.8
		c1.5-1.6,3.5-2.4,5.9-2.4c2.3,0,4.2,0.8,5.8,2.4c1.5,1.6,2.3,3.5,2.3,5.8c0,2.3-0.8,4.2-2.3,5.8c-1.5,1.6-3.5,2.4-5.8,2.4
		C57.6,91.4,55.7,90.6,54.1,89z"/>
</g>
</svg>
