<?xml version="1.0" encoding="utf-8"?>
<!-- Generator: Adobe Illustrator 25.3.1, SVG Export Plug-In . SVG Version: 6.00 Build 0)  -->
<svg version="1.1" id="Capa_1" xmlns="http://www.w3.org/2000/svg" xmlns:xlink="http://www.w3.org/1999/xlink" x="0px" y="0px"
	 viewBox="0 0 94.2 94.2" style="enable-background:new 0 0 94.2 94.2;" xml:space="preserve">
<g>
	<g>
		<g>
			<g>
				<path d="M39.8,20.3H25.1c-2.7,0-4.9,2.2-4.9,4.9v14.7c0,2.7,2.2,4.9,4.9,4.9h14.7c2.7,0,4.9-2.2,4.9-4.9V25.1
					C44.7,22.4,42.5,20.3,39.8,20.3z"/>
				<path d="M69.1,20.3H54.4c-2.7,0-4.9,2.2-4.9,4.9v14.7c0,2.7,2.2,4.9,4.9,4.9h14.7c2.7,0,4.9-2.2,4.9-4.9V25.1
					C74,22.4,71.8,20.3,69.1,20.3z"/>
				<path d="M39.8,49.6H25.1c-2.7,0-4.9,2.2-4.9,4.9v14.7c0,2.7,2.2,4.9,4.9,4.9h14.7c2.7,0,4.9-2.2,4.9-4.9V54.4
					C44.7,51.8,42.5,49.6,39.8,49.6z"/>
				<path d="M70.5,58.3h-5.2v-5.2c0-1-0.8-1.7-1.7-1.7H60c-1,0-1.7,0.8-1.7,1.7v5.2h-5.2c-1,0-1.7,0.8-1.7,1.7v3.5
					c0,1,0.8,1.7,1.7,1.7h5.2v5.2c0,1,0.8,1.7,1.7,1.7h3.5c1,0,1.7-0.8,1.7-1.7v-5.2h5.2c1,0,1.7-0.8,1.7-1.7V60
					C72.2,59.1,71.4,58.3,70.5,58.3z"/>
			</g>
		</g>
	</g>
</g>
</svg>
