<?xml version="1.0" encoding="utf-8"?>
<!-- Generator: Adobe Illustrator 25.3.1, SVG Export Plug-In . SVG Version: 6.00 Build 0)  -->
<svg version="1.1" id="Capa_1" xmlns="http://www.w3.org/2000/svg" xmlns:xlink="http://www.w3.org/1999/xlink" x="0px" y="0px"
	 viewBox="0 0 64.5 66.9" style="enable-background:new 0 0 64.5 66.9;" xml:space="preserve">
<style type="text/css">
	.st0{fill:#FFFFFF;}
	.st1{fill:#F9B712;}
</style>
<g>
	<circle class="st0" cx="32.2" cy="33.3" r="30.5"/>
	<g>
		<path class="st1" d="M47,40.1c-2.4-2-3.8-5-3.8-8.1v-4.4c0-5.6-4.1-10.2-9.5-10.9V15c0-0.9-0.7-1.6-1.6-1.6
			c-0.9,0-1.6,0.7-1.6,1.6v1.7c-5.4,0.8-9.5,5.4-9.5,10.9V32c0,3.1-1.4,6.1-3.8,8.1c-0.6,0.5-1,1.3-1,2.1c0,1.5,1.2,2.8,2.8,2.8
			h26.1c1.5,0,2.8-1.2,2.8-2.8C48,41.4,47.6,40.6,47,40.1z"/>
		<path class="st1" d="M32.2,52.3c2.9,0,5.3-2,5.8-4.7H26.4C26.9,50.3,29.3,52.3,32.2,52.3z"/>
	</g>
</g>
</svg>
