<?xml version="1.0" encoding="utf-8"?>
<!-- Generator: Adobe Illustrator 25.3.1, SVG Export Plug-In . SVG Version: 6.00 Build 0)  -->
<svg version="1.1" id="Capa_1" xmlns="http://www.w3.org/2000/svg" xmlns:xlink="http://www.w3.org/1999/xlink" x="0px" y="0px"
	 viewBox="0 0 94.2 94.2" style="enable-background:new 0 0 94.2 94.2;" xml:space="preserve">
<style type="text/css">
	.st0{fill:none;stroke:#000000;stroke-width:2.035;stroke-miterlimit:10;}
	.st1{fill:#33AEF2;}
	.st2{fill:#FFFFFF;}
	.st3{fill:none;stroke:#33AEF2;stroke-width:2;stroke-miterlimit:10;}
	.st4{fill:#E9F7FF;}
	.st5{fill:none;stroke:#33AEF2;stroke-width:6;stroke-miterlimit:10;}
	.st6{fill:#F8C34F;}
	.st7{fill:#EF8484;}
	.st8{fill:#FF8585;}
	.st9{fill:#285E9E;}
	.st10{fill:#303030;}
	.st11{fill:none;stroke:#FFFFFF;stroke-miterlimit:10;}
	.st12{fill:#FFFFFF;stroke:#285E9E;stroke-miterlimit:10;}
	.st13{fill:#F9B712;}
	.st14{fill:#FFFFFF;stroke:#FFFFFF;stroke-miterlimit:10;}
	.st15{fill:none;stroke:#285E9E;stroke-width:2;stroke-miterlimit:10;}
	.st16{fill:none;stroke:#3346B0;stroke-width:0.6937;stroke-miterlimit:10;}
	.st17{fill:#F9F9F9;stroke:#3346B0;stroke-width:0.6937;stroke-miterlimit:10;}
	.st18{fill:none;stroke:#3346B0;stroke-width:4;stroke-miterlimit:10;}
	.st19{fill:#FFC543;}
	.st20{fill:#79D8B4;}
	.st21{fill:none;stroke:#3346B0;stroke-width:4.0364;stroke-linecap:round;stroke-miterlimit:10;}
	.st22{fill:#8EDFC2;}
	.st23{opacity:0.7;}
	.st24{fill:#FF3939;}
	.st25{fill:#3346B0;}
</style>
<g>
	<g>
		<g>
			<path class="st2" d="M72.2,37h-4.4v-5.9c0-11.4-9.3-20.7-20.7-20.7s-20.7,9.3-20.7,20.7V37H22c-0.8,0-1.5,0.7-1.5,1.5v36.9
				c0,3.3,2.6,5.9,5.9,5.9h41.4c3.3,0,5.9-2.6,5.9-5.9V38.5C73.7,37.6,73,37,72.2,37z M51.5,67.8c0,0.4-0.1,0.8-0.4,1.1
				c-0.3,0.3-0.7,0.5-1.1,0.5h-5.9c-0.4,0-0.8-0.2-1.1-0.5s-0.4-0.7-0.4-1.1l0.9-8.4c-1.5-1.1-2.4-2.8-2.4-4.8
				c0-3.3,2.6-5.9,5.9-5.9s5.9,2.6,5.9,5.9c0,1.9-0.9,3.7-2.4,4.8L51.5,67.8z M58.9,37H35.3v-5.9c0-6.5,5.3-11.8,11.8-11.8
				s11.8,5.3,11.8,11.8V37z"/>
		</g>
	</g>
</g>
</svg>
